<svg xmlns="http://www.w3.org/2000/svg" version="1.0" preserveAspectRatio="xMidYMid meet" viewBox="240.1 202 594.94 634">
<g transform="translate(0.000000,1024.000000) scale(0.100000,-0.100000)" fill="#000000" stroke="none">
<path d="M2912 8207 c-54 -30 -56 -44 -58 -292 -1 -153 -6 -244 -14 -273 l-13 -42 -17 38 c-21 47 -79 71 -137 56 -67 -17 -71 -32 -74 -274 -1 -118 -1 -276 0 -349 l1 -135 68 -65 c38 -37 121 -112 184 -169 l116 -103 4 -99 c2 -64 8 -104 16 -112 10 -10 59 -13 205 -11 252 2 239 2 260 17 43 33 29 134 -22 161 -75 38 -181 26 -181 -21 0 -23 3 -24 70 -24 65 0 71 -2 82 -25 6 -14 9 -27 7 -29 -2 -2 -86 -7 -186 -11 l-183 -7 0 91 0 90 -42 38 c-45 41 -114 103 -251 226 l-87 79 0 322 c0 310 1 323 20 344 12 12 27 22 34 22 20 0 44 -31 61 -80 24 -69 71 -134 114 -158 106 -60 221 9 221 132 0 41 3 48 28 58 15 6 83 12 154 12 108 1 130 -2 144 -16 16 -16 18 -54 18 -445 l1 -428 22 -3 c13 -2 25 4 31 15 12 22 14 847 2 877 -4 12 -19 33 -33 49 -23 24 -25 33 -20 76 18 150 -56 241 -159 195 -61 -28 -78 -62 -78 -164 l0 -85 -42 -11 c-24 -6 -52 -15 -62 -19 -15 -7 -18 -5 -14 7 13 31 12 462 0 484 -25 46 -71 74 -120 74 -26 -1 -57 -6 -70 -13z m94 -55 c31 -20 33 -51 28 -358 -6 -344 -6 -344 -72 -344 -27 0 -42 8 -68 36 -42 44 -42 62 -4 99 l30 29 0 261 c0 190 3 264 12 273 13 13 57 16 74 4z m368 -294 c11 -16 16 -46 16 -101 l0 -78 -57 3 -56 3 2 80 c3 87 16 115 57 115 13 0 30 -10 38 -22z"/>
<path d="M7547 8062 c-15 -9 -30 -26 -34 -37 -6 -16 -5 -435 1 -442 0 -1 13 -4 29 -8 l27 -7 0 214 c0 197 2 216 19 232 20 18 57 11 78 -15 12 -16 25 -549 13 -549 -4 0 -14 7 -21 16 -10 12 -25 15 -61 12 -45 -5 -48 -3 -48 18 0 36 -48 64 -113 64 -50 0 -58 -3 -85 -34 -35 -40 -40 -54 -51 -138 -5 -35 -9 -56 -10 -47 -3 48 -102 65 -140 25 -22 -23 -22 -27 -19 -257 4 -254 7 -266 61 -299 98 -60 196 26 184 161 l-4 46 43 -5 c30 -3 51 0 69 12 l25 16 0 -63 c0 -47 -6 -76 -24 -111 -23 -45 -23 -47 -6 -69 16 -20 20 -20 44 -8 44 24 53 86 47 301 l-4 105 25 3 c30 4 66 58 49 75 -7 7 -16 3 -29 -13 -11 -14 -25 -21 -34 -18 -18 7 -31 89 -22 136 6 28 10 32 40 32 23 0 43 -9 68 -34 34 -32 36 -37 36 -99 0 -81 5 -94 42 -113 24 -12 36 -13 64 -4 45 15 43 33 -4 52 l-39 15 -6 114 c-4 63 -7 232 -7 377 0 285 -2 299 -56 341 -33 26 -107 28 -147 3z m-60 -581 c14 -18 17 -90 4 -110 -7 -11 -13 -10 -34 4 -16 10 -41 15 -64 14 -37 -3 -38 -2 -35 26 7 76 89 117 129 66z m-247 -156 c47 -24 60 -61 60 -169 0 -93 -1 -96 -24 -102 -13 -3 -35 -4 -47 -2 -24 3 -24 4 -27 146 -1 78 0 142 3 142 3 0 19 -7 35 -15z m223 -8 c37 -57 39 -226 3 -253 -49 -35 -97 -3 -99 68 -4 113 3 168 23 188 26 26 54 25 73 -3z m-146 -362 c-3 -44 -11 -73 -23 -86 -40 -44 -92 3 -96 86 l-3 50 55 6 c30 3 59 6 64 7 5 1 6 -27 3 -63z"/>
<path d="M7913 7939 c-17 -11 -36 -34 -42 -51 -7 -20 -11 -141 -11 -330 0 -317 1 -325 46 -300 16 9 17 34 15 302 -2 265 -1 294 15 311 17 19 50 25 70 11 32 -21 35 -50 28 -360 -6 -260 -5 -310 7 -318 8 -5 64 -11 124 -14 l110 -5 3 -32 c4 -42 -26 -63 -93 -63 -28 0 -60 -6 -72 -15 -11 -8 -40 -59 -63 -114 -73 -175 -168 -312 -235 -342 -29 -14 -65 -19 -130 -19 -49 0 -100 -3 -112 -6 -40 -11 -53 -104 -16 -118 24 -9 53 12 53 39 l0 25 108 0 c103 0 111 2 151 28 67 45 193 232 257 380 21 49 32 63 53 68 153 32 218 132 135 209 -29 27 -64 35 -150 35 l-64 0 0 293 c0 174 -4 307 -11 330 -19 70 -109 99 -176 56z"/>
<path d="M4450 7787 c-41 -14 -80 -68 -80 -111 0 -33 33 -96 50 -96 5 0 10 -4 10 -10 0 -5 -11 -10 -25 -10 -37 0 -83 -48 -97 -101 -21 -85 -5 -109 240 -351 119 -119 252 -252 295 -296 74 -79 76 -82 52 -88 -60 -15 -88 -92 -56 -157 37 -76 28 -75 446 -70 449 4 492 7 500 34 15 45 5 46 -343 42 -180 -2 -363 -8 -407 -14 -70 -10 -85 -9 -113 5 -39 20 -52 60 -28 84 12 13 34 17 83 17 44 0 68 4 70 12 5 13 -124 147 -460 481 -230 228 -257 272 -202 327 51 51 78 35 305 -184 73 -71 138 -127 144 -124 5 4 6 1 1 -6 -5 -9 10 -29 42 -60 27 -25 67 -68 88 -96 74 -93 122 -118 144 -76 12 21 5 31 -20 31 -9 0 -29 14 -44 32 -23 28 -27 39 -22 81 5 53 -7 67 -40 49 -16 -9 -57 27 -287 253 -237 234 -267 267 -264 291 4 37 57 69 92 57 14 -4 89 -71 168 -148 79 -77 210 -202 291 -278 l147 -139 0 -139 c0 -139 0 -140 27 -165 14 -13 37 -27 50 -30 43 -11 105 3 132 30 l26 26 5 216 c4 176 8 216 20 224 22 14 42 12 68 -6 22 -15 22 -19 22 -228 0 -117 3 -234 6 -260 6 -43 9 -47 33 -44 l26 3 2 255 c2 188 0 261 -10 279 -19 37 -60 63 -111 68 -43 5 -49 3 -78 -28 l-32 -34 -27 28 c-51 50 -135 27 -164 -46 l-16 -40 -86 84 c-47 46 -100 98 -117 114 -18 17 -92 89 -166 161 -74 72 -144 136 -155 141 -34 18 -98 23 -135 10z m801 -467 c10 -6 19 -19 19 -30 0 -10 8 -23 18 -29 15 -8 17 -29 20 -166 3 -130 1 -160 -13 -181 -21 -32 -69 -33 -89 -1 -16 26 -29 357 -15 394 9 25 29 29 60 13z"/>
<path d="M5154 7515 c-4 -8 -4 -22 0 -30 8 -23 394 -22 402 0 4 8 1 22 -6 30 -19 22 -388 22 -396 0z"/>
<path d="M5821 7386 c-9 -11 -9 -29 -2 -73 11 -57 7 -151 -19 -432 -8 -93 -8 -117 3 -128 16 -16 43 -8 52 15 11 30 36 326 38 458 2 117 0 134 -17 153 -22 25 -39 27 -55 7z"/>
<path d="M7002 7287 c-14 -17 -18 -672 -4 -708 41 -102 175 -144 232 -72 24 31 25 46 5 63 -13 11 -20 9 -40 -10 -34 -32 -79 -31 -113 4 l-27 26 4 355 3 355 -25 0 c-13 0 -29 -6 -35 -13z"/>
<path d="M4854 5960 c-53 -21 -54 -28 -54 -393 0 -204 4 -346 10 -357 5 -10 30 -26 54 -35 43 -16 47 -16 83 1 21 11 43 30 50 44 17 36 21 657 5 687 -29 53 -92 76 -148 53z m100 -250 c7 -7 12 -90 14 -233 3 -252 1 -261 -63 -261 -21 0 -40 6 -46 15 -5 7 -10 109 -11 224 -2 254 -2 256 14 267 16 11 77 3 92 -12z"/>
<path d="M2442 5886 l-37 -34 -2 -544 -2 -543 130 -135 c72 -74 147 -156 167 -182 39 -52 59 -59 86 -29 17 19 14 23 -91 133 -59 62 -134 141 -165 175 l-58 62 0 523 c0 288 4 529 9 537 15 23 80 5 91 -25 6 -14 10 -151 10 -305 l0 -281 29 -29 c40 -39 100 -40 156 -2 49 32 56 43 49 67 -6 18 -4 18 24 -3 38 -26 105 -28 147 -3 22 14 33 32 45 72 l16 54 33 -53 c24 -37 35 -66 35 -93 l1 -41 -60 -3 c-53 -2 -63 -6 -88 -35 -27 -30 -29 -36 -23 -90 6 -53 5 -60 -22 -91 -46 -54 -124 -187 -120 -206 2 -9 12 -18 24 -20 16 -2 34 18 88 102 l67 104 39 -5 c40 -6 129 27 162 61 16 15 23 13 110 -37 119 -68 141 -77 183 -77 42 0 43 -7 8 -53 -113 -146 -306 -410 -311 -426 -2 -5 9 -18 24 -28 26 -17 27 -17 42 6 9 13 58 80 110 149 142 190 221 311 228 349 14 76 -18 176 -73 228 -15 14 -49 32 -75 41 -27 9 -48 22 -48 30 0 8 29 53 65 100 90 119 94 150 33 219 -45 52 -62 58 -89 36 l-24 -19 43 -46 c46 -50 47 -48 -6 -138 -41 -72 -60 -88 -73 -65 -19 34 -65 49 -120 39 l-50 -9 -20 43 c-12 24 -40 59 -64 79 -39 32 -43 39 -38 68 10 64 -69 121 -142 103 -45 -11 -86 -57 -92 -103 l-5 -41 -23 25 c-17 21 -33 27 -78 31 l-57 4 0 158 c0 153 -1 158 -25 184 -52 57 -119 61 -173 12z m528 -352 c6 -14 10 -66 10 -115 0 -100 -15 -129 -68 -129 -59 0 -83 66 -63 171 17 85 28 99 74 99 31 0 39 -4 47 -26z m-224 -79 c23 -35 18 -189 -6 -210 -29 -26 -82 -16 -98 18 -16 33 -17 158 -2 187 23 43 80 45 106 5z m523 -174 c7 -5 16 -32 19 -61 6 -60 20 -73 102 -91 73 -16 112 -54 108 -106 -3 -36 -4 -38 -37 -36 -45 2 -227 92 -268 133 -37 36 -38 42 -22 91 22 63 62 92 98 70z"/>
<path d="M5454 5906 c-17 -8 -40 -26 -52 -41 -21 -27 -22 -37 -22 -265 0 -280 5 -330 31 -330 18 0 19 10 19 153 0 148 1 154 23 175 28 27 58 28 80 4 15 -17 17 -68 17 -535 l0 -516 -22 -21 c-26 -24 -47 -25 -74 -6 -18 13 -19 32 -25 278 -5 223 -8 271 -25 318 -21 59 -45 75 -64 41 -8 -17 -6 -29 12 -63 22 -41 23 -54 25 -300 1 -224 4 -260 19 -283 33 -51 108 -70 152 -39 53 37 52 22 52 721 0 719 4 680 -66 709 -40 17 -41 17 -80 0z m90 -87 c3 -17 6 -58 6 -89 l0 -58 -56 -4 c-40 -2 -58 1 -62 10 -6 17 4 148 13 162 3 6 26 10 49 10 41 0 44 -2 50 -31z"/>
<path d="M7914 5808 l-35 -33 0 -95 c0 -52 -2 -161 -6 -242 l-5 -148 -218 0 c-120 0 -225 -3 -234 -6 -9 -3 -16 -16 -16 -29 0 -13 7 -26 16 -29 9 -3 139 -6 289 -6 240 0 274 2 279 16 11 28 7 35 -25 46 -25 8 -30 15 -25 32 3 11 6 114 6 228 l0 208 25 16 c27 18 60 12 70 -14 4 -9 9 -249 11 -532 3 -283 7 -516 10 -519 2 -3 17 0 32 5 l27 9 -4 520 c-4 554 -4 555 -53 589 -12 9 -42 16 -65 16 -35 0 -50 -6 -79 -32z"/>
<path d="M5130 5463 l-31 -28 7 -100 c7 -94 9 -102 37 -127 38 -37 85 -37 118 -2 21 22 24 37 28 110 4 113 -3 148 -35 162 -44 21 -91 15 -124 -15z m109 -31 c6 -11 9 -56 8 -101 -2 -69 -6 -85 -22 -97 -27 -20 -42 -17 -60 9 -18 29 -22 155 -6 186 15 27 66 29 80 3z"/>
<path d="M4456 5320 c-62 -19 -96 -73 -96 -152 1 -70 25 -122 102 -215 115 -139 168 -206 168 -212 -1 -3 -15 -15 -33 -26 -18 -12 -35 -33 -40 -52 -13 -43 24 -120 97 -201 30 -33 68 -80 84 -104 45 -65 59 -75 79 -55 20 20 12 33 -83 142 -69 80 -134 178 -134 205 0 25 39 53 55 40 21 -18 60 -8 63 16 3 19 -152 223 -259 341 -86 95 -55 233 53 233 44 0 68 -20 207 -175 30 -33 95 -103 145 -155 50 -53 110 -117 134 -143 46 -51 53 -54 72 -32 14 16 -7 50 -81 130 -20 22 -90 101 -156 175 -215 242 -264 273 -377 240z"/>
<path d="M5059 5173 c-20 -34 -30 -85 -21 -100 4 -5 21 -18 39 -26 17 -9 41 -30 53 -47 12 -17 27 -27 33 -24 7 4 9 4 5 0 -3 -4 12 -42 34 -84 38 -73 40 -80 36 -148 -4 -53 -13 -86 -37 -134 -29 -58 -30 -65 -16 -79 15 -15 18 -14 35 7 31 38 62 148 63 226 1 77 -15 118 -101 259 -30 49 -39 57 -65 57 -28 0 -29 1 -23 38 12 69 11 76 -4 79 -9 2 -23 -9 -31 -24z"/>
<path d="M7570 5123 c-58 -2 -109 -8 -115 -14 -5 -5 -12 -45 -15 -87 l-5 -77 -36 -3 c-30 -3 -41 2 -59 25 -22 28 -23 53 -4 126 6 27 5 28 -22 25 -23 -2 -30 -9 -36 -38 -9 -44 7 -149 26 -168 19 -19 84 -30 122 -20 46 12 67 41 72 102 l4 54 62 5 c33 2 64 2 69 0 4 -2 7 -30 7 -61 0 -37 6 -66 16 -81 16 -22 21 -23 117 -19 l100 4 -7 -155 c-7 -172 -10 -180 -93 -271 -39 -44 -39 -70 1 -70 31 0 95 72 134 150 26 54 27 60 30 265 4 230 -3 275 -42 293 -30 13 -182 20 -326 15z m298 -107 c8 -65 1 -71 -82 -68 l-75 4 -11 36 c-17 64 -19 63 78 60 l87 -3 3 -29z"/>
<path d="M7134 5098 c-10 -16 -5 -211 7 -280 17 -98 86 -296 126 -360 21 -33 69 -94 106 -134 57 -61 72 -72 87 -64 38 20 33 41 -24 92 -142 127 -232 358 -243 626 -6 129 -6 132 -29 132 -12 0 -26 -5 -30 -12z"/>
<path d="M8207 4923 c3 -66 0 -132 -7 -168 -7 -33 -15 -79 -19 -103 -5 -23 -11 -45 -15 -49 -4 -4 -27 1 -52 10 -26 9 -50 14 -55 11 -5 -3 -9 -27 -9 -54 0 -46 -5 -56 -66 -132 -37 -46 -83 -100 -102 -121 -30 -30 -35 -41 -26 -55 22 -34 49 -26 97 30 109 129 158 195 164 221 4 22 10 27 25 23 28 -7 64 9 82 36 25 39 56 218 56 327 0 92 -2 101 -22 115 -12 9 -30 16 -39 16 -15 0 -16 -12 -12 -107z"/>
<path d="M2827 4324 c-13 -13 -7 -52 9 -58 9 -3 80 -6 159 -6 119 0 146 3 160 16 9 9 15 24 13 33 -3 14 -25 16 -169 19 -91 1 -168 -1 -172 -4z"/>
<path d="M5050 4265 c-29 -35 -7 -42 147 -50 167 -8 207 0 201 38 -3 22 -5 22 -169 25 -138 2 -168 0 -179 -13z"/>
<path d="M7407 3583 c-19 -16 -38 -39 -42 -52 -3 -13 -6 -130 -5 -260 2 -311 1 -321 -8 -321 -5 0 -16 18 -25 40 -20 53 -67 75 -129 61 -39 -9 -45 -8 -63 14 -36 44 -111 58 -164 30 -30 -15 -61 -76 -61 -119 0 -22 -3 -23 -49 -18 -43 4 -53 1 -75 -21 -25 -25 -26 -30 -27 -159 -1 -358 -5 -342 103 -469 35 -41 90 -110 123 -153 33 -43 70 -90 83 -105 22 -25 22 -26 37 -7 25 33 18 45 -157 255 -26 31 -64 80 -85 110 l-38 53 -3 214 -3 214 35 0 c47 0 59 -24 51 -95 -4 -29 -4 -76 0 -103 l7 -49 41 4 c71 8 79 -6 88 -141 8 -136 10 -140 137 -275 57 -61 83 -83 95 -78 33 13 20 42 -56 127 -112 124 -107 116 -107 178 0 71 9 88 38 73 31 -16 114 -14 140 5 18 13 29 14 54 5 50 -18 96 -14 108 9 17 31 4 40 -55 40 l-53 0 -4 51 c-1 28 -1 53 1 55 2 2 49 4 103 4 l98 0 0 -40 c0 -80 49 -146 102 -138 26 3 40 48 15 48 -8 0 -25 8 -37 18 -19 16 -22 27 -21 95 l1 77 -140 0 -140 0 0 48 0 47 134 -3 133 -3 6 28 c4 15 4 84 2 153 -2 69 -1 160 2 203 l6 77 36 1 36 1 -35 10 c-19 5 -38 15 -42 21 -8 12 0 63 14 90 10 19 58 23 88 7 18 -10 19 -29 20 -403 0 -215 2 -419 5 -452 13 -167 14 -238 3 -258 -27 -51 -121 -168 -162 -202 -53 -43 -64 -65 -40 -82 10 -7 20 -13 23 -13 4 0 33 24 65 53 89 79 219 280 196 303 -5 5 -11 50 -13 99 -3 50 -10 117 -16 149 -10 50 -11 417 -1 754 2 77 -65 140 -137 129 -28 -5 -33 -2 -42 24 -7 21 -23 36 -53 49 -60 27 -98 25 -141 -7z m129 -56 c26 -23 27 -26 16 -70 -8 -29 -12 -140 -12 -298 l0 -252 -37 7 c-21 3 -47 6 -58 6 -20 0 -20 6 -18 273 0 149 2 284 2 299 2 57 59 76 107 35z m-448 -494 c5 -10 12 -79 15 -154 8 -159 1 -179 -62 -179 -60 0 -74 24 -79 130 -6 115 4 175 31 200 27 25 83 27 95 3z m163 -50 c17 -19 30 -354 15 -381 -25 -46 -85 -44 -137 2 -32 30 -36 36 -23 47 37 31 47 70 41 166 -7 95 0 132 30 165 20 23 56 23 74 1z"/>
<path d="M2825 3553 c-27 -7 -54 -32 -71 -65 -18 -35 -21 -583 -3 -622 14 -29 64 -56 106 -56 35 0 86 31 109 65 15 24 17 56 17 278 -1 139 -2 269 -2 290 -2 72 -83 130 -156 110z m79 -85 c11 -15 16 -45 16 -85 l0 -63 -55 0 -55 0 0 69 c0 61 3 72 22 85 31 22 54 20 72 -6z m14 -388 c-3 -196 -4 -200 -60 -200 -16 0 -31 7 -36 18 -5 9 -12 95 -15 190 l-5 172 59 0 60 0 -3 -180z"/>
<path d="M3233 3533 c-12 -2 -36 -17 -52 -32 -38 -36 -39 -43 -46 -553 l-5 -417 -26 -28 c-14 -15 -51 -66 -81 -113 -31 -47 -69 -104 -84 -128 -30 -45 -29 -72 3 -72 23 0 65 45 119 127 21 32 61 90 89 130 l50 72 0 445 c0 266 4 455 10 470 14 38 54 54 78 32 18 -15 19 -43 24 -387 6 -408 3 -389 70 -389 54 0 95 38 114 109 19 66 40 98 69 103 19 3 20 -3 23 -163 l2 -166 -59 -22 c-67 -24 -116 -73 -178 -175 -21 -34 -62 -94 -93 -135 -114 -152 -133 -183 -123 -199 5 -9 15 -18 21 -20 23 -7 125 120 267 333 l80 120 64 22 c35 12 69 27 75 33 7 7 12 75 14 189 l3 178 -26 32 c-21 24 -35 31 -62 31 -80 0 -123 -46 -138 -147 -4 -23 -13 -47 -21 -54 -28 -23 -34 37 -34 374 0 369 1 365 -66 393 -34 14 -41 15 -81 7z"/>
<path d="M4813 3519 c-43 -13 -73 -57 -73 -108 0 -56 20 -101 69 -154 l41 -44 -47 -6 c-55 -6 -85 -34 -104 -97 -16 -52 -1 -104 47 -161 l35 -42 -28 -12 c-35 -15 -63 -55 -70 -99 -7 -46 23 -99 101 -176 l66 -64 0 -91 c0 -106 24 -171 87 -230 74 -71 63 -69 433 -75 184 -3 340 -4 347 -2 23 7 32 62 37 247 3 105 10 272 17 373 12 177 12 184 -8 210 -46 62 -122 65 -182 5 -18 -18 -39 -33 -46 -33 -16 0 -139 113 -390 359 -217 212 -240 227 -332 200z m103 -71 c16 -13 56 -51 88 -85 32 -35 63 -60 69 -56 5 3 7 2 4 -4 -9 -15 89 -107 104 -98 7 5 10 4 6 -2 -7 -11 62 -79 218 -219 151 -134 163 -139 194 -69 23 53 57 73 91 55 21 -11 22 -14 15 -153 -3 -78 -10 -205 -16 -282 -5 -77 -9 -180 -9 -230 l0 -90 -287 3 c-159 2 -305 8 -326 13 -47 12 -102 60 -128 111 -16 31 -19 56 -18 128 2 83 0 91 -25 124 -15 20 -35 40 -46 46 -31 17 -100 120 -100 151 0 25 47 79 70 79 8 0 243 -245 281 -294 23 -30 41 -33 63 -10 15 14 14 18 -4 44 -11 16 -98 108 -193 205 -182 187 -219 235 -215 275 3 28 78 90 110 90 22 0 463 -430 474 -462 10 -34 74 -17 74 20 0 8 -132 148 -294 311 -262 263 -316 325 -316 362 0 17 48 59 68 59 10 0 31 -10 48 -22z"/>
<path d="M2513 3134 c-63 -31 -64 -36 -61 -513 l3 -429 23 -25 c27 -29 79 -42 98 -26 24 20 15 45 -20 61 l-34 17 -7 183 c-8 202 -2 639 9 657 4 6 22 11 40 11 44 0 46 -9 46 -187 0 -161 0 -162 84 -165 53 -3 78 15 74 51 -3 26 -14 30 -63 20 -19 -4 -20 3 -25 147 -5 163 -8 171 -64 198 -42 20 -62 20 -103 0z"/>
<path d="M2941 2706 c-6 -7 -8 -26 -5 -42 4 -22 -4 -48 -30 -99 -36 -70 -44 -109 -26 -120 21 -13 45 16 83 101 57 131 64 154 46 165 -21 13 -55 11 -68 -5z"/>
<path d="M5047 1983 c-13 -12 -7 -51 9 -57 9 -3 145 -6 303 -6 303 0 328 3 319 46 -3 18 -16 19 -314 22 -171 1 -313 -1 -317 -5z"/>
<path d="M2652 1968 c-18 -18 -15 -46 6 -52 9 -2 120 -4 246 -3 201 2 230 4 239 19 8 12 7 21 -2 32 -12 14 -46 16 -245 16 -167 0 -235 -3 -244 -12z"/>
<path d="M7122 1944 c-14 -10 -14 -14 1 -38 l17 -26 173 0 c190 0 220 7 225 52 l3 27 -202 -2 c-131 -1 -207 -6 -217 -13z"/>
</g>
</svg>